<?xml version="1.0" standalone="no"?>
<!DOCTYPE svg PUBLIC "-//W3C//DTD SVG 20010904//EN"
 "http://www.w3.org/TR/2001/REC-SVG-20010904/DTD/svg10.dtd">
<svg version="1.0" xmlns="http://www.w3.org/2000/svg"
 width="80.000000pt" height="80.000000pt" viewBox="0 0 80.000000 80.000000"
 preserveAspectRatio="xMidYMid meet">
<metadata>
Created by potrace 1.14, written by Peter Selinger 2001-2017
</metadata>
<g transform="translate(0.000000,80.000000) scale(0.100000,-0.100000)"
fill="#000000" stroke="none">
<path d="M290 585 l0 -95 80 0 80 0 0 30 c0 30 -1 30 -55 30 l-55 0 0 65 c0
63 -1 65 -25 65 -25 0 -25 0 -25 -95z"/>
<path d="M499 548 c-1 -2 -3 -61 -4 -133 -1 -72 -3 -133 -4 -136 0 -4 -25 -7
-53 -7 -112 0 -110 1 -106 -29 3 -26 6 -28 50 -28 26 0 50 -4 55 -8 4 -5 8
-34 8 -65 0 -58 1 -60 43 -53 5 0 8 37 7 80 -1 44 1 85 5 92 5 8 43 11 119 10
l111 -2 0 45 0 45 -82 3 -82 3 -1 90 0 90 -32 3 c-18 2 -34 2 -34 0z"/>
<path d="M83 492 c-19 -3 -23 -10 -23 -43 0 -43 -4 -41 93 -41 67 0 68 -1 64
-115 l-2 -71 33 -4 c18 -2 35 -2 37 1 3 2 5 64 5 138 0 99 -3 133 -12 134 -56
3 -177 3 -195 1z"/>
</g>
</svg>
